<svg id="Layer_1" data-name="Layer 1" xmlns="http://www.w3.org/2000/svg" xmlns:xlink="http://www.w3.org/1999/xlink" viewBox="0 0 1374.8 328"><defs><style>.cls-1{fill:none;}.cls-2{fill:#b63281;}.cls-3{fill:#b31e8d;}.cls-4{clip-path:url(#clip-path);}.cls-5{fill:url(#linear-gradient);}</style><clipPath id="clip-path" transform="translate(-9.6 -15.4)"><path class="cls-1" d="M631.6,93c-105.3,0-161.9,15.5-161.9,37,0,19.9,66.7,36.3,149.2,36.3S767.7,149.9,767.7,130c0-11.5-17.5-26.9-72.6-32.1,0,0-4.1-.4-4.4,1.9s4.9,2.7,4.9,2.7c42.2,3.8,50.6,15,49.6,20-2.6,12.9-56.8,24-126.3,24s-126.6-10.8-126.6-24,64.8-25,139.1-25c0,0,5.4.2,5.4-2.1s-3.5-2.4-4.7-2.4Z"/></clipPath><linearGradient id="linear-gradient" x1="1267.09" y1="998.85" x2="1273.57" y2="998.85" gradientTransform="matrix(0, -9.86, -9.86, 0, 10462.11, 12652.04)" gradientUnits="userSpaceOnUse"><stop offset="0" stop-color="#f2e5f0"/><stop offset="0.89" stop-color="#b31e8d"/><stop offset="0.99" stop-color="#b31e8d"/><stop offset="1" stop-color="#b31e8d"/></linearGradient></defs><path class="cls-2" d="M46.5,317.3V340a22.2,22.2,0,0,1-6.9,2.5,41.9,41.9,0,0,1-8.6.9,21.1,21.1,0,0,1-11.5-2.9,19.1,19.1,0,0,1-7.3-8.7,32.2,32.2,0,0,1-2.6-13.5,33.7,33.7,0,0,1,2.5-13.4,18.8,18.8,0,0,1,7.3-8.6,20.6,20.6,0,0,1,11.2-3,24.3,24.3,0,0,1,8.6,1.5,18.5,18.5,0,0,1,6.7,4.7l-2,4.3a21.1,21.1,0,0,0-6.4-4.3,17,17,0,0,0-6.9-1.4c-5,0-8.9,1.8-11.6,5.3s-4,8.4-4,14.9,1.3,11.7,4.1,15.2,6.7,5.1,12,5.1a30.2,30.2,0,0,0,10.6-1.8v-15h-11v-4.5Z" transform="translate(-9.6 -15.4)"/><path class="cls-2" d="M57,342.9V293.8H85.1v4.8h-23v17H83.9v4.7H62.1v17.9h23v4.7Z" transform="translate(-9.6 -15.4)"/><path class="cls-2" d="M124.5,293.8h4.9v49.1h-4L98.6,303.4v39.5H93.7V293.8h4l26.8,39.5Z" transform="translate(-9.6 -15.4)"/><path class="cls-2" d="M140.4,342.9V293.8h28.1v4.8h-23v17h21.8v4.7H145.5v17.9h23v4.7Z" transform="translate(-9.6 -15.4)"/><path class="cls-2" d="M212.1,342.9h-5.6l-7.6-15.7a8.5,8.5,0,0,0-3.3-4,10.3,10.3,0,0,0-5.1-1h-8.3v20.7h-5.1V293.8h18.3q7.2,0,11.1,3.6c2.5,2.3,3.8,5.8,3.8,10.4a14.1,14.1,0,0,1-2.9,9.2,13.3,13.3,0,0,1-8.4,4.5,7.8,7.8,0,0,1,3,1.8,12.5,12.5,0,0,1,2.4,3.6ZM195,317.4c3.4,0,6-.8,7.7-2.3s2.6-4,2.6-7.2-.9-5.5-2.6-7-4.2-2.3-7.7-2.3H182.2v18.8Z" transform="translate(-9.6 -15.4)"/><path class="cls-2" d="M254.1,342.9l-5-12.6H225.9L221,342.9h-5.3l19.5-49.1h4.5l19.6,49.1Zm-26.4-17.3h19.6l-9.8-25.2Z" transform="translate(-9.6 -15.4)"/><path class="cls-2" d="M265.9,342.9V293.8h5.2V338h22.3v4.9Z" transform="translate(-9.6 -15.4)"/><path class="cls-2" d="M354.1,293.8h4.2v49.1h-4.7v-38l-14.5,30.2h-3.6L321,305.2v37.7h-4.8V293.8h4.3l16.9,35.6Z" transform="translate(-9.6 -15.4)"/><path class="cls-2" d="M369.4,342.9V293.8h28.2v4.8H374.5v17h21.8v4.7H374.5v17.9h23.1v4.7Z" transform="translate(-9.6 -15.4)"/><path class="cls-2" d="M441.2,342.9h-5.7l-7.6-15.7a9,9,0,0,0-3.2-4,10.8,10.8,0,0,0-5.1-1h-8.3v20.7h-5.2V293.8h18.3q7.4,0,11.1,3.6c2.6,2.3,3.8,5.8,3.8,10.4s-.9,6.9-2.9,9.2a12.8,12.8,0,0,1-8.4,4.5,6.5,6.5,0,0,1,3,1.8,12.5,12.5,0,0,1,2.4,3.6ZM424,317.4c3.5,0,6-.8,7.7-2.3s2.6-4,2.6-7.2-.8-5.5-2.5-7-4.3-2.3-7.8-2.3H411.3v18.8Z" transform="translate(-9.6 -15.4)"/><path class="cls-2" d="M457.1,340.4a18.7,18.7,0,0,1-7.1-8.7,32.4,32.4,0,0,1-2.5-13.4A31.9,31.9,0,0,1,450,305a18.7,18.7,0,0,1,7.1-8.7,20.2,20.2,0,0,1,11-3,23.4,23.4,0,0,1,8.5,1.5,18.5,18.5,0,0,1,6.7,4.7l-2,4.3a23.6,23.6,0,0,0-6.3-4.3,16.5,16.5,0,0,0-6.8-1.3c-4.9,0-8.7,1.8-11.3,5.3s-4,8.4-4,14.8,1.3,11.4,4,15,6.4,5.2,11.3,5.2a16.5,16.5,0,0,0,6.8-1.3,21.4,21.4,0,0,0,6.3-4.3l2,4.4a19.6,19.6,0,0,1-6.7,4.6,23.4,23.4,0,0,1-8.5,1.5A20.2,20.2,0,0,1,457.1,340.4Z" transform="translate(-9.6 -15.4)"/><path class="cls-2" d="M523.6,293.8h5.1v49.1h-5.1V320.4H497v22.5h-5.1V293.8H497v21.7h26.6Z" transform="translate(-9.6 -15.4)"/><path class="cls-2" d="M573.8,342.9l-5-12.6H545.6l-4.9,12.6h-5.3l19.5-49.1h4.5L579,342.9Zm-26.4-17.3H567l-9.8-25.2Z" transform="translate(-9.6 -15.4)"/><path class="cls-2" d="M616.4,293.8h4.9v49.1h-4l-26.8-39.5v39.5h-4.9V293.8h4l26.8,39.5Z" transform="translate(-9.6 -15.4)"/><path class="cls-2" d="M632.3,293.8h14.9c7.1,0,12.7,2.1,16.5,6.4s5.9,10.3,5.9,18.1-2,13.9-5.9,18.2-9.4,6.4-16.5,6.4H632.3ZM646.9,338c11.6,0,17.3-6.5,17.3-19.7s-5.7-19.6-17.3-19.6h-9.4V338Z" transform="translate(-9.6 -15.4)"/><path class="cls-2" d="M678.9,342.9V293.8h5.2v49.1Z" transform="translate(-9.6 -15.4)"/><path class="cls-2" d="M692.6,337.3l2-4.4a22.1,22.1,0,0,0,6.7,4.4,24.4,24.4,0,0,0,8,1.3c3.6,0,6.3-.8,8.3-2.3a8,8,0,0,0,2.9-6.5,6.1,6.1,0,0,0-1.4-4,9.9,9.9,0,0,0-3.7-2.4,57.8,57.8,0,0,0-6.1-1.9,52.8,52.8,0,0,1-8.5-2.8,13,13,0,0,1-5.4-4.1,11.9,11.9,0,0,1-2-7.1,13,13,0,0,1,2-7.4,12.9,12.9,0,0,1,5.7-5.1,20.5,20.5,0,0,1,8.5-1.7,22,22,0,0,1,8.6,1.6,17.1,17.1,0,0,1,6.8,4.6l-1.9,4.3a22.9,22.9,0,0,0-6.5-4.3,17.8,17.8,0,0,0-7-1.4,12.6,12.6,0,0,0-8.1,2.4,8.2,8.2,0,0,0-2.9,6.8,6.2,6.2,0,0,0,2.6,5.5c1.7,1.3,4.3,2.3,7.8,3.2s6.8,2,9,2.8a14.5,14.5,0,0,1,5.5,3.9,10.5,10.5,0,0,1,2.1,6.9,13.5,13.5,0,0,1-1.9,7.3,13.1,13.1,0,0,1-5.8,4.8,19.3,19.3,0,0,1-8.7,1.7C702.3,343.4,696.7,341.4,692.6,337.3Z" transform="translate(-9.6 -15.4)"/><path class="cls-2" d="M734,342.9V293.8h28.2v4.8h-23v17h21.7v4.7H739.2v17.9h23v4.7Z" transform="translate(-9.6 -15.4)"/><path class="cls-2" d="M784.5,337.3l2.1-4.4a22.1,22.1,0,0,0,6.7,4.4,23.9,23.9,0,0,0,8,1.3c3.6,0,6.3-.8,8.2-2.3a7.8,7.8,0,0,0,3-6.5,6.1,6.1,0,0,0-1.4-4,10.8,10.8,0,0,0-3.7-2.4c-1.5-.6-3.6-1.2-6.1-1.9a52.8,52.8,0,0,1-8.5-2.8,13,13,0,0,1-5.4-4.1,11.9,11.9,0,0,1-2-7.1,13,13,0,0,1,2-7.4A13.2,13.2,0,0,1,793,295a21.3,21.3,0,0,1,8.6-1.7,22.3,22.3,0,0,1,8.6,1.6,17.8,17.8,0,0,1,6.8,4.6l-2,4.3a22.5,22.5,0,0,0-6.4-4.3,17.8,17.8,0,0,0-7-1.4q-5.2,0-8.1,2.4a8.3,8.3,0,0,0-3,6.8,6.4,6.4,0,0,0,2.6,5.5A23.8,23.8,0,0,0,801,316c3.8,1,6.8,2,9,2.8a13.4,13.4,0,0,1,5.4,3.9,10,10,0,0,1,2.2,6.9,12.7,12.7,0,0,1-2,7.3,12.3,12.3,0,0,1-5.7,4.8,19.9,19.9,0,0,1-8.7,1.7C794.3,343.4,788.7,341.4,784.5,337.3Z" transform="translate(-9.6 -15.4)"/><path class="cls-2" d="M835.8,342.9V298.7H820.3v-4.9h36.3v4.9H841v44.2Z" transform="translate(-9.6 -15.4)"/><path class="cls-2" d="M867.9,340.4a20.2,20.2,0,0,1-7-8.7,32.2,32.2,0,0,1-2.5-13.3,34.1,34.1,0,0,1,2.4-13.4,19.8,19.8,0,0,1,7-8.7,19.6,19.6,0,0,1,10.9-3,19.2,19.2,0,0,1,10.8,3,18.5,18.5,0,0,1,7,8.7,34,34,0,0,1,2.4,13.3,34.5,34.5,0,0,1-2.4,13.4,20.4,20.4,0,0,1-7.1,8.7,18.9,18.9,0,0,1-10.7,3A19.2,19.2,0,0,1,867.9,340.4Zm21.8-7.1q3.9-5.2,3.9-15c0-6.5-1.3-11.5-3.9-14.9a14.1,14.1,0,0,0-22,0c-2.7,3.5-4,8.5-4,14.9s1.3,11.5,4,15a14.1,14.1,0,0,0,22,0Z" transform="translate(-9.6 -15.4)"/><path class="cls-2" d="M943.3,342.9h-5.7l-7.5-15.7c-1-1.9-2-3.3-3.3-4a10.3,10.3,0,0,0-5.1-1h-8.3v20.7h-5.1V293.8h18.3q7.2,0,11.1,3.6c2.5,2.3,3.8,5.8,3.8,10.4a14.1,14.1,0,0,1-2.9,9.2,13.3,13.3,0,0,1-8.4,4.5,7.8,7.8,0,0,1,3,1.8,15,15,0,0,1,2.4,3.6Zm-17.2-25.5c3.5,0,6.1-.8,7.8-2.3s2.5-4,2.5-7.2-.8-5.5-2.5-7-4.3-2.3-7.8-2.3H913.4v18.8Z" transform="translate(-9.6 -15.4)"/><path class="cls-2" d="M951.6,342.9V293.8h28.1v4.8h-23v17h21.8v4.7H956.7v17.9h23v4.7Z" transform="translate(-9.6 -15.4)"/><path class="cls-2" d="M1004.6,342.9V293.8h27.5v4.8h-22.4v16.9h21.2v4.8h-21.2v22.6Z" transform="translate(-9.6 -15.4)"/><path class="cls-2" d="M1074.8,342.9h-5.7l-7.5-15.7c-1-1.9-2-3.3-3.3-4a10.3,10.3,0,0,0-5.1-1h-8.3v20.7h-5.1V293.8h18.3q7.2,0,11.1,3.6c2.5,2.3,3.8,5.8,3.8,10.4a14.1,14.1,0,0,1-2.9,9.2,13.3,13.3,0,0,1-8.4,4.5,7.8,7.8,0,0,1,3,1.8,15,15,0,0,1,2.4,3.6Zm-17.1-25.5c3.4,0,6-.8,7.7-2.3s2.5-4,2.5-7.2-.8-5.5-2.5-7-4.3-2.3-7.7-2.3h-12.8v18.8Z" transform="translate(-9.6 -15.4)"/><path class="cls-2" d="M1090.6,340.4a20.2,20.2,0,0,1-7-8.7,33.9,33.9,0,0,1-2.5-13.3,32.4,32.4,0,0,1,2.5-13.4,18.5,18.5,0,0,1,7-8.7,20.9,20.9,0,0,1,21.6,0,18.5,18.5,0,0,1,7,8.7,32.2,32.2,0,0,1,2.5,13.3,34.4,34.4,0,0,1-2.5,13.4,20.2,20.2,0,0,1-7,8.7,20.9,20.9,0,0,1-21.6,0Zm21.8-7.1c2.6-3.5,4-8.5,4-15s-1.3-11.5-4-14.9a14.1,14.1,0,0,0-22,0c-2.6,3.5-4,8.5-4,14.9s1.4,11.5,4,15a14.1,14.1,0,0,0,22,0Z" transform="translate(-9.6 -15.4)"/><path class="cls-2" d="M1168.8,293.8h4.3v49.1h-4.8v-38l-14.5,30.2h-3.6l-14.6-29.9v37.7H1131V293.8h4.3l16.9,35.6Z" transform="translate(-9.6 -15.4)"/><path class="cls-2" d="M1194.4,338.6l3.8-.3a6.7,6.7,0,0,0,4.9-2.5,9.5,9.5,0,0,0,1.7-6v-36h5.2v36.1c0,4-1,7.2-2.9,9.4s-4.6,3.6-8.2,3.8l-4.1.3Z" transform="translate(-9.6 -15.4)"/><path class="cls-2" d="M1255,342.9l-4.9-12.6h-23.3l-4.9,12.6h-5.3l19.6-49.1h4.5l19.5,49.1Zm-26.3-17.3h19.5l-9.7-25.2Z" transform="translate(-9.6 -15.4)"/><path class="cls-2" d="M1266.9,293.8h17.6c4.7,0,8.3,1.3,10.9,3.8s3.9,6,3.9,10.6-1.4,8.2-4,10.7-6.2,3.9-10.8,3.9H1272v20.1h-5.1ZM1284,318c6.8,0,10.1-3.2,10.1-9.8s-3.3-9.6-10.1-9.6h-12V318Z" transform="translate(-9.6 -15.4)"/><path class="cls-2" d="M1336.9,342.9l-4.9-12.6h-23.3l-4.9,12.6h-5.3l19.6-49.1h4.4l19.6,49.1Zm-26.3-17.3h19.5l-9.8-25.2Z" transform="translate(-9.6 -15.4)"/><path class="cls-2" d="M1379.6,293.8h4.8v49.1h-4l-26.8-39.5v39.5h-4.9V293.8h4l26.9,39.5Z" transform="translate(-9.6 -15.4)"/><polygon class="cls-3" points="528.5 198.5 633.2 198.5 633.2 224.5 500.1 224.5 500.1 9.2 337.5 224.4 305.3 224.4 471.2 5 630.8 5 630.8 30.6 528.5 30.6 528.5 198.5"/><polygon class="cls-3" points="1069.5 5 1069.5 224.5 1048.1 224.5 927.6 56.7 927.6 224.5 900.8 224.5 900.8 5 922.5 5 1042.6 172.7 1042.6 5 1069.5 5"/><path class="cls-3" d="M770.7,15.4c-65.8,0-117.5,50.5-117.5,114.7s51.7,114.8,117.5,114.8,118-50.4,118-114.8S837,15.4,770.7,15.4m.7,204.1A89.2,89.2,0,0,1,682,130.1c0-49.5,39.9-89.8,89.4-89.8s89.3,40.3,89.3,89.8a89.3,89.3,0,0,1-89.3,89.4" transform="translate(-9.6 -15.4)"/><g class="cls-4"><rect class="cls-5" x="460.1" y="77.5" width="298" height="73.38"/></g></svg>